<svg xmlns="http://www.w3.org/2000/svg" xmlns:xlink="http://www.w3.org/1999/xlink" width="500" zoomAndPan="magnify" viewBox="0 0 375 374.999991" height="500" preserveAspectRatio="xMidYMid meet" version="1.0"><defs><g/></defs><rect x="-37.5" width="450" fill="#ffffff" y="-37.499999" height="449.999989" fill-opacity="1"/><rect x="-37.5" width="450" fill="#000000" y="-37.499999" height="449.999989" fill-opacity="1"/><g fill="#eee2ca" fill-opacity="1"><g transform="translate(116.497164, 245.037867)"><g><path d="M 68.234375 -155.78125 L 137.859375 -155.78125 C 137.859375 -149.800781 136.097656 -144.320312 132.578125 -139.34375 C 129.054688 -134.375 124.648438 -129.515625 119.359375 -124.765625 C 114.078125 -120.015625 108.71875 -115.109375 103.28125 -110.046875 C 97.84375 -104.992188 93.285156 -99.5625 89.609375 -93.75 C 85.171875 -86.695312 82.414062 -80.832031 81.34375 -76.15625 C 80.269531 -71.488281 79.734375 -67.929688 79.734375 -65.484375 L 79.734375 0 L 29.640625 0 L 29.640625 -20.671875 C 29.640625 -25.578125 30.710938 -29.484375 32.859375 -32.390625 C 35.003906 -35.304688 37.757812 -37.679688 41.125 -39.515625 C 44.5 -41.359375 48.0625 -42.96875 51.8125 -44.34375 C 55.5625 -45.71875 59.117188 -47.25 62.484375 -48.9375 C 65.859375 -50.625 68.617188 -52.804688 70.765625 -55.484375 C 72.910156 -58.171875 73.984375 -61.734375 73.984375 -66.171875 C 73.984375 -71.378906 72.910156 -75.359375 70.765625 -78.109375 C 68.617188 -80.867188 65.820312 -82.898438 62.375 -84.203125 C 58.9375 -85.503906 55.1875 -86.421875 51.125 -86.953125 C 47.0625 -87.492188 43.039062 -88.1875 39.0625 -89.03125 C 35.082031 -89.875 31.554688 -91.253906 28.484375 -93.171875 C 25.421875 -95.085938 23.203125 -98.035156 21.828125 -102.015625 C 19.835938 -107.679688 18.34375 -112.582031 17.34375 -116.71875 C 16.351562 -120.851562 14.859375 -125.296875 12.859375 -130.046875 C 10.109375 -136.628906 6.203125 -140.265625 1.140625 -140.953125 C -3.910156 -141.648438 -8.195312 -140.003906 -11.71875 -136.015625 L -15.859375 -140.15625 C -11.253906 -146.59375 -5.625 -151.070312 1.03125 -153.59375 C 7.695312 -156.125 14.015625 -157.390625 19.984375 -157.390625 C 22.898438 -157.390625 26.613281 -156.8125 31.125 -155.65625 C 35.644531 -154.507812 40.351562 -152.441406 45.25 -149.453125 C 50.15625 -146.472656 54.828125 -142.1875 59.265625 -136.59375 C 63.710938 -131 67.316406 -123.835938 70.078125 -115.109375 C 72.222656 -108.066406 73.984375 -102.242188 75.359375 -97.640625 C 76.742188 -93.046875 77.738281 -88.835938 78.34375 -85.015625 C 79.269531 -87.773438 80.5 -90.457031 82.03125 -93.0625 C 89.226562 -105.613281 91.984375 -117.210938 90.296875 -127.859375 C 88.609375 -138.503906 81.253906 -147.8125 68.234375 -155.78125 Z M 68.234375 -155.78125 "/></g></g></g><g fill="#eee2ca" fill-opacity="1"><g transform="translate(111.067951, 314.151483)"><g><path d="M 13.859375 -7.390625 C 13.859375 -5.753906 13.546875 -4.390625 12.921875 -3.296875 C 12.296875 -2.203125 11.390625 -1.378906 10.203125 -0.828125 C 9.023438 -0.273438 7.601562 0 5.9375 0 L 1.828125 0 L 1.828125 -14.515625 L 6.375 -14.515625 C 7.90625 -14.515625 9.226562 -14.242188 10.34375 -13.703125 C 11.457031 -13.160156 12.320312 -12.363281 12.9375 -11.3125 C 13.550781 -10.257812 13.859375 -8.953125 13.859375 -7.390625 Z M 10.671875 -7.3125 C 10.671875 -8.382812 10.515625 -9.265625 10.203125 -9.953125 C 9.890625 -10.648438 9.425781 -11.160156 8.8125 -11.484375 C 8.195312 -11.816406 7.441406 -11.984375 6.546875 -11.984375 L 4.90625 -11.984375 L 4.90625 -2.546875 L 6.21875 -2.546875 C 7.726562 -2.546875 8.847656 -2.941406 9.578125 -3.734375 C 10.304688 -4.535156 10.671875 -5.726562 10.671875 -7.3125 Z M 10.671875 -7.3125 "/></g></g></g><g fill="#eee2ca" fill-opacity="1"><g transform="translate(125.121958, 314.151483)"><g><path d="M 1.828125 0 L 1.828125 -14.515625 L 4.90625 -14.515625 L 4.90625 0 Z M 1.828125 0 "/></g></g></g><g fill="#eee2ca" fill-opacity="1"><g transform="translate(130.856512, 314.151483)"><g><path d="M 7.328125 -8.15625 L 13.09375 -8.15625 L 13.09375 -0.625 C 12.332031 -0.375 11.539062 -0.171875 10.71875 -0.015625 C 9.894531 0.128906 8.96875 0.203125 7.9375 0.203125 C 6.488281 0.203125 5.257812 -0.0820312 4.25 -0.65625 C 3.25 -1.226562 2.488281 -2.066406 1.96875 -3.171875 C 1.445312 -4.285156 1.1875 -5.65625 1.1875 -7.28125 C 1.1875 -8.800781 1.476562 -10.113281 2.0625 -11.21875 C 2.644531 -12.332031 3.5 -13.191406 4.625 -13.796875 C 5.757812 -14.410156 7.140625 -14.71875 8.765625 -14.71875 C 9.535156 -14.71875 10.289062 -14.632812 11.03125 -14.46875 C 11.78125 -14.300781 12.460938 -14.085938 13.078125 -13.828125 L 12.046875 -11.359375 C 11.609375 -11.585938 11.101562 -11.773438 10.53125 -11.921875 C 9.957031 -12.078125 9.363281 -12.15625 8.75 -12.15625 C 7.851562 -12.15625 7.070312 -11.945312 6.40625 -11.53125 C 5.75 -11.125 5.238281 -10.550781 4.875 -9.8125 C 4.519531 -9.082031 4.34375 -8.21875 4.34375 -7.21875 C 4.34375 -6.269531 4.472656 -5.429688 4.734375 -4.703125 C 4.992188 -3.972656 5.398438 -3.398438 5.953125 -2.984375 C 6.515625 -2.566406 7.238281 -2.359375 8.125 -2.359375 C 8.5625 -2.359375 8.929688 -2.378906 9.234375 -2.421875 C 9.535156 -2.460938 9.816406 -2.507812 10.078125 -2.5625 L 10.078125 -5.59375 L 7.328125 -5.59375 Z M 7.328125 -8.15625 "/></g></g></g><g fill="#eee2ca" fill-opacity="1"><g transform="translate(144.58291, 314.151483)"><g><path d="M 1.828125 0 L 1.828125 -14.515625 L 4.90625 -14.515625 L 4.90625 0 Z M 1.828125 0 "/></g></g></g><g fill="#eee2ca" fill-opacity="1"><g transform="translate(150.317464, 314.151483)"><g><path d="M 7.421875 0 L 4.34375 0 L 4.34375 -11.953125 L 0.40625 -11.953125 L 0.40625 -14.515625 L 11.359375 -14.515625 L 11.359375 -11.953125 L 7.421875 -11.953125 Z M 7.421875 0 "/></g></g></g><g fill="#eee2ca" fill-opacity="1"><g transform="translate(161.095314, 314.151483)"><g><path d="M 10.703125 0 L 9.65625 -3.453125 L 4.375 -3.453125 L 3.3125 0 L 0 0 L 5.125 -14.578125 L 8.890625 -14.578125 L 14.03125 0 Z M 8.921875 -6.03125 L 7.875 -9.40625 C 7.800781 -9.632812 7.707031 -9.925781 7.59375 -10.28125 C 7.488281 -10.632812 7.378906 -10.992188 7.265625 -11.359375 C 7.160156 -11.722656 7.078125 -12.039062 7.015625 -12.3125 C 6.953125 -12.039062 6.863281 -11.703125 6.75 -11.296875 C 6.632812 -10.898438 6.519531 -10.523438 6.40625 -10.171875 C 6.300781 -9.816406 6.226562 -9.5625 6.1875 -9.40625 L 5.140625 -6.03125 Z M 8.921875 -6.03125 "/></g></g></g><g fill="#eee2ca" fill-opacity="1"><g transform="translate(174.12677, 314.151483)"><g><path d="M 1.828125 0 L 1.828125 -14.515625 L 4.90625 -14.515625 L 4.90625 -2.546875 L 10.796875 -2.546875 L 10.796875 0 Z M 1.828125 0 "/></g></g></g><g fill="#eee2ca" fill-opacity="1"><g transform="translate(184.616721, 314.151483)"><g/></g></g><g fill="#eee2ca" fill-opacity="1"><g transform="translate(188.901824, 314.151483)"><g><path d="M 10.390625 -4.03125 C 10.390625 -3.164062 10.179688 -2.414062 9.765625 -1.78125 C 9.347656 -1.144531 8.738281 -0.65625 7.9375 -0.3125 C 7.144531 0.03125 6.179688 0.203125 5.046875 0.203125 C 4.535156 0.203125 4.039062 0.164062 3.5625 0.09375 C 3.082031 0.03125 2.625 -0.0625 2.1875 -0.1875 C 1.75 -0.320312 1.332031 -0.484375 0.9375 -0.671875 L 0.9375 -3.53125 C 1.625 -3.226562 2.335938 -2.953125 3.078125 -2.703125 C 3.816406 -2.460938 4.550781 -2.34375 5.28125 -2.34375 C 5.78125 -2.34375 6.179688 -2.40625 6.484375 -2.53125 C 6.796875 -2.664062 7.019531 -2.847656 7.15625 -3.078125 C 7.300781 -3.316406 7.375 -3.582031 7.375 -3.875 C 7.375 -4.238281 7.25 -4.550781 7 -4.8125 C 6.757812 -5.070312 6.425781 -5.3125 6 -5.53125 C 5.570312 -5.757812 5.09375 -6.003906 4.5625 -6.265625 C 4.21875 -6.421875 3.847656 -6.613281 3.453125 -6.84375 C 3.054688 -7.070312 2.675781 -7.347656 2.3125 -7.671875 C 1.957031 -8.003906 1.664062 -8.40625 1.4375 -8.875 C 1.21875 -9.351562 1.109375 -9.925781 1.109375 -10.59375 C 1.109375 -11.457031 1.304688 -12.195312 1.703125 -12.8125 C 2.097656 -13.425781 2.660156 -13.894531 3.390625 -14.21875 C 4.128906 -14.550781 5.003906 -14.71875 6.015625 -14.71875 C 6.765625 -14.71875 7.484375 -14.628906 8.171875 -14.453125 C 8.859375 -14.273438 9.578125 -14.023438 10.328125 -13.703125 L 9.328125 -11.3125 C 8.660156 -11.582031 8.0625 -11.789062 7.53125 -11.9375 C 7 -12.082031 6.460938 -12.15625 5.921875 -12.15625 C 5.535156 -12.15625 5.207031 -12.09375 4.9375 -11.96875 C 4.664062 -11.851562 4.457031 -11.679688 4.3125 -11.453125 C 4.175781 -11.234375 4.109375 -10.976562 4.109375 -10.6875 C 4.109375 -10.34375 4.207031 -10.050781 4.40625 -9.8125 C 4.613281 -9.582031 4.921875 -9.359375 5.328125 -9.140625 C 5.734375 -8.921875 6.238281 -8.664062 6.84375 -8.375 C 7.582031 -8.019531 8.210938 -7.648438 8.734375 -7.265625 C 9.265625 -6.890625 9.671875 -6.445312 9.953125 -5.9375 C 10.242188 -5.425781 10.390625 -4.789062 10.390625 -4.03125 Z M 10.390625 -4.03125 "/></g></g></g><g fill="#eee2ca" fill-opacity="1"><g transform="translate(199.103865, 314.151483)"><g><path d="M 7.421875 0 L 4.34375 0 L 4.34375 -11.953125 L 0.40625 -11.953125 L 0.40625 -14.515625 L 11.359375 -14.515625 L 11.359375 -11.953125 L 7.421875 -11.953125 Z M 7.421875 0 "/></g></g></g><g fill="#eee2ca" fill-opacity="1"><g transform="translate(209.881715, 314.151483)"><g><path d="M 13.640625 -14.515625 L 13.640625 -5.125 C 13.640625 -4.125 13.414062 -3.222656 12.96875 -2.421875 C 12.53125 -1.617188 11.863281 -0.976562 10.96875 -0.5 C 10.082031 -0.03125 8.96875 0.203125 7.625 0.203125 C 5.707031 0.203125 4.242188 -0.285156 3.234375 -1.265625 C 2.234375 -2.242188 1.734375 -3.539062 1.734375 -5.15625 L 1.734375 -14.515625 L 4.796875 -14.515625 L 4.796875 -5.625 C 4.796875 -4.425781 5.039062 -3.582031 5.53125 -3.09375 C 6.019531 -2.613281 6.742188 -2.375 7.703125 -2.375 C 8.378906 -2.375 8.925781 -2.488281 9.34375 -2.71875 C 9.757812 -2.957031 10.066406 -3.316406 10.265625 -3.796875 C 10.472656 -4.285156 10.578125 -4.898438 10.578125 -5.640625 L 10.578125 -14.515625 Z M 13.640625 -14.515625 "/></g></g></g><g fill="#eee2ca" fill-opacity="1"><g transform="translate(224.253411, 314.151483)"><g><path d="M 13.859375 -7.390625 C 13.859375 -5.753906 13.546875 -4.390625 12.921875 -3.296875 C 12.296875 -2.203125 11.390625 -1.378906 10.203125 -0.828125 C 9.023438 -0.273438 7.601562 0 5.9375 0 L 1.828125 0 L 1.828125 -14.515625 L 6.375 -14.515625 C 7.90625 -14.515625 9.226562 -14.242188 10.34375 -13.703125 C 11.457031 -13.160156 12.320312 -12.363281 12.9375 -11.3125 C 13.550781 -10.257812 13.859375 -8.953125 13.859375 -7.390625 Z M 10.671875 -7.3125 C 10.671875 -8.382812 10.515625 -9.265625 10.203125 -9.953125 C 9.890625 -10.648438 9.425781 -11.160156 8.8125 -11.484375 C 8.195312 -11.816406 7.441406 -11.984375 6.546875 -11.984375 L 4.90625 -11.984375 L 4.90625 -2.546875 L 6.21875 -2.546875 C 7.726562 -2.546875 8.847656 -2.941406 9.578125 -3.734375 C 10.304688 -4.535156 10.671875 -5.726562 10.671875 -7.3125 Z M 10.671875 -7.3125 "/></g></g></g><g fill="#eee2ca" fill-opacity="1"><g transform="translate(238.307418, 314.151483)"><g><path d="M 1.828125 0 L 1.828125 -14.515625 L 4.90625 -14.515625 L 4.90625 0 Z M 1.828125 0 "/></g></g></g><g fill="#eee2ca" fill-opacity="1"><g transform="translate(244.041972, 314.151483)"><g><path d="M 15 -7.28125 C 15 -6.15625 14.859375 -5.132812 14.578125 -4.21875 C 14.304688 -3.300781 13.882812 -2.507812 13.3125 -1.84375 C 12.75 -1.1875 12.03125 -0.679688 11.15625 -0.328125 C 10.289062 0.0234375 9.269531 0.203125 8.09375 0.203125 C 6.90625 0.203125 5.878906 0.0234375 5.015625 -0.328125 C 4.148438 -0.679688 3.429688 -1.1875 2.859375 -1.84375 C 2.296875 -2.507812 1.875 -3.300781 1.59375 -4.21875 C 1.320312 -5.144531 1.1875 -6.171875 1.1875 -7.296875 C 1.1875 -8.796875 1.429688 -10.101562 1.921875 -11.21875 C 2.410156 -12.332031 3.164062 -13.195312 4.1875 -13.8125 C 5.21875 -14.425781 6.523438 -14.734375 8.109375 -14.734375 C 9.679688 -14.734375 10.972656 -14.425781 11.984375 -13.8125 C 13.003906 -13.195312 13.757812 -12.328125 14.25 -11.203125 C 14.75 -10.085938 15 -8.78125 15 -7.28125 Z M 4.40625 -7.28125 C 4.40625 -6.257812 4.53125 -5.382812 4.78125 -4.65625 C 5.039062 -3.925781 5.441406 -3.363281 5.984375 -2.96875 C 6.523438 -2.570312 7.226562 -2.375 8.09375 -2.375 C 8.96875 -2.375 9.675781 -2.570312 10.21875 -2.96875 C 10.757812 -3.363281 11.148438 -3.925781 11.390625 -4.65625 C 11.640625 -5.382812 11.765625 -6.257812 11.765625 -7.28125 C 11.765625 -8.800781 11.476562 -9.992188 10.90625 -10.859375 C 10.34375 -11.734375 9.410156 -12.171875 8.109375 -12.171875 C 7.242188 -12.171875 6.535156 -11.972656 5.984375 -11.578125 C 5.441406 -11.191406 5.039062 -10.628906 4.78125 -9.890625 C 4.53125 -9.160156 4.40625 -8.289062 4.40625 -7.28125 Z M 4.40625 -7.28125 "/></g></g></g></svg>